<svg width="16" height="16" viewBox="0 0 16 16" fill="none" xmlns="http://www.w3.org/2000/svg">
<path fillRule="evenodd" clipRule="evenodd" d="M7.21756 0.599609H7.24156H8.76156H8.78556C9.82556 0.599609 10.6416 0.599609 11.2976 0.651609C11.9656 0.707609 12.5176 0.819609 13.0176 1.07561C13.8376 1.49561 14.5056 2.16361 14.9256 2.98361C15.1816 3.48361 15.2936 4.03561 15.3496 4.70361C15.4016 5.35961 15.4016 6.17561 15.4016 7.21561V7.23961V8.75961V8.78361C15.4016 9.82361 15.4016 10.6396 15.3496 11.2956C15.2936 11.9636 15.1816 12.5156 14.9256 13.0156C14.5056 13.8356 13.8376 14.5036 13.0176 14.9236C12.5176 15.1796 11.9656 15.2916 11.2976 15.3476C10.6416 15.3996 9.82556 15.3996 8.78556 15.3996H8.76156H7.24156H7.21756C6.17756 15.3996 5.36156 15.3996 4.70556 15.3476C4.03756 15.2916 3.48556 15.1796 2.98556 14.9236C2.16156 14.5036 1.49756 13.8396 1.07756 13.0156C0.821563 12.5156 0.709563 11.9636 0.653563 11.2956C0.601563 10.6396 0.601562 9.82361 0.601562 8.78361V8.75961V7.23961V7.21561C0.601562 6.17561 0.601563 5.35961 0.653563 4.70361C0.709563 4.03561 0.821563 3.48361 1.07756 2.98361C1.49756 2.15961 2.16156 1.49561 2.98556 1.07561C3.48556 0.819609 4.03756 0.707609 4.70556 0.651609C5.36156 0.599609 6.17756 0.599609 7.21756 0.599609ZM4.79756 1.78761C4.20156 1.83561 3.81356 1.93161 3.50156 2.08761C2.89356 2.39561 2.40156 2.89161 2.09356 3.49561C1.93356 3.80761 1.84156 4.19161 1.79356 4.79161C1.74556 5.39561 1.74556 6.16761 1.74556 7.23961V8.75961C1.74556 9.83161 1.74556 10.5996 1.79356 11.2076C1.84156 11.8036 1.93756 12.1916 2.09356 12.5036C2.40156 13.1116 2.89756 13.6036 3.50156 13.9116C3.81356 14.0716 4.19756 14.1636 4.79756 14.2116C5.40156 14.2596 6.17356 14.2596 7.24556 14.2596H8.76156C9.83356 14.2596 10.6016 14.2596 11.2096 14.2116C11.8056 14.1636 12.1936 14.0676 12.5056 13.9116C13.1136 13.6036 13.6056 13.1076 13.9136 12.5036C14.0736 12.1916 14.1656 11.8076 14.2136 11.2076C14.2616 10.6036 14.2616 9.83161 14.2616 8.75961V7.23961C14.2616 6.16761 14.2616 5.39961 14.2136 4.79161C14.1656 4.19561 14.0696 3.80761 13.9136 3.49561C13.6056 2.88761 13.1096 2.39561 12.5056 2.08761C12.1936 1.92761 11.8096 1.83561 11.2096 1.78761C10.6056 1.73961 9.83356 1.73961 8.76156 1.73961H7.24156C6.16956 1.73961 5.40156 1.73961 4.79756 1.78761ZM8.42556 9.51961L9.00556 4.57561C9.07756 3.97561 8.60556 3.44361 8.00156 3.44361C7.39756 3.44361 6.92556 3.97161 6.99756 4.57561L7.57756 9.51961C7.60156 9.73561 7.78556 9.89561 8.00156 9.89561C8.21756 9.89561 8.40156 9.73561 8.42556 9.51961ZM8.00156 12.5516C8.42156 12.5516 8.76156 12.2116 8.76156 11.7916C8.76156 11.3716 8.42156 11.0316 8.00156 11.0316C7.58156 11.0316 7.24156 11.3716 7.24156 11.7916C7.24156 12.2116 7.58156 12.5516 8.00156 12.5516Z" fill="#1A73E8"/>
</svg>
